/* XPM */
static char *_c7057e887024e0df6616172d50f4335A2hK69UmaZRU3CVq[] = {
/* columns rows colors chars-per-pixel */
"32 32 4 1 ",
"  c black",
". c #1D1920",
"X c #F693AF",
"o c LightYellow",
/* pixels */
"....          ..                ",
"....          ..                ",
"..oo....    ..XX..              ",
"..oo....    ..XX..              ",
"  ..ooXX..  ..oo..      ....    ",
"  ..ooXX..  ..oo..      ....    ",
"  ..XXoooo..............oo..    ",
"  ..XXoooo..............oo..    ",
"    ..oo..............XX..      ",
"    ..oo..............XX..      ",
"      ....................      ",
"      ....................      ",
"      ....oooo....oooooo......  ",
"      ....oooo....oooooo......  ",
"  ......oooo..oooo..oooo..ooXX..",
"  ......oooo..oooo..oooo..ooXX..",
"..XXoo..oooo..oooo..oooo......  ",
"..XXoo..oooo..oooo..oooo......  ",
"  ........oooo....oooo....      ",
"  ........oooo....oooo....      ",
"      ....................      ",
"      ....................      ",
"      ..XX..............oo..    ",
"      ..XX..............oo..    ",
"    ..oo........oo....ooooXX    ",
"    ..oo........oo....ooooXX    ",
"    ....      ..oo..  ..XXoo    ",
"    ....      ..oo..  ..XXoo    ",
"              ..XX..    ....oo..",
"              ..XX..    ....oo..",
"                ..          ....",
"                ..          ...."
};
