/* XPM */
static char *c190d71ca49a418ed6496633ac0e619fzhaUc36OWsAL4B3A[] = {
/* columns rows colors chars-per-pixel */
"32 32 2 1 ",
"  c #FFA24D",
". c #EFD171",
/* pixels */
"................................",
". ............. ................",
". ............. ........ .......",
". ...... ...... ..... .. .... ..",
"........ ............ .. .... ..",
"........ ............ ....... ..",
"... ............................",
"... ......... ..... ...... .....",
"... ......... ..... ...... ... .",
"...... ...... ..... ...... ... .",
"...... .......... ............ .",
"...... .......... ..............",
".............. .. ..... ........",
".. ........... ........ ... ....",
".. ...... .... ........ ... ....",
".. ...... ......... ....... ....",
"......... ......... ............",
"................... ............",
". .......... ...................",
". .......... .... ....... ......",
". .......... .... ... ... ......",
"....... ......... ... ... .... .",
"....... ............. ........ .",
"....... ...... ............... .",
"... .......... ......... .......",
"... .......... ......... .......",
"... ................ ... ... ...",
"... ................ ....... ...",
"......... ...... ... ....... ...",
". ....... ...... ...............",
". ....... ...... ...............",
". .............................."
};
