/* XPM */
static char *_42d8a853d9f48abff6c57e218e9d25dmRkPH73dHhAL5kRu[] = {
/* columns rows colors chars-per-pixel */
"32 32 6 1 ",
"  c None",
". c #FF285E",
"X c #6F57FF",
"o c #FF229E",
"O c #FF77FF",
"+ c white",
/* pixels */
"                                ",
"                                ",
"                                ",
"                                ",
"                                ",
"                                ",
"            XXXXXXX             ",
"           XXOOOOOOX            ",
"          XOOOOOOOOOX     X     ",
"         XOOOOOOOOOOOX   XOX    ",
"        XXOOOOOOOOOOOOX XOOX    ",
"        XOOOOOX+OX+OOOXXOOOX    ",
"      XXOOXXOOX+OX+OOOOXOOX     ",
"     XOOOOOOOOOXOOXOOOOOOXX     ",
"    XOOOOOXXOOOOOOOOOOOXXX      ",
"   XOOOOOOOOOOOOOOOOOOOX        ",
"   XOOXXXXOOOOOXXXXOOOOX        ",
"    XX  XOOOOOX....XOOOX        ",
"        XOOOOOOXooXOOOX         ",
"         XOOOOOOXXOOOXXX        ",
"         XXXOOOOOOOOX..X        ",
"         X..XOOOOOOX...X        ",
"         X...XOOOOOX..X         ",
"          X..XXXXXXXXX          ",
"           XX                   ",
"                                ",
"                                ",
"                                ",
"                                ",
"                                ",
"                                ",
"                                "
};
