/* XPM */
static char *f0f0616e9e884cc8826baad49a91004brc8mpiE4d6hdcLx1[] = {
/* columns rows colors chars-per-pixel */
"32 32 5 1 ",
"  c #000100",
". c #2F6F17",
"X c #154648",
"o c #F6221B",
"O c white",
/* pixels */
"                                ",
"                                ",
"                                ",
"                                ",
"                                ",
"              .....             ",
"            .........           ",
"           ...........          ",
"          .............         ",
"         X..XX.....XX..X        ",
"        oX.XooX...XooX.Xo       ",
"       oooXooooX.XooooXooo      ",
"      ooooooooooXoooooooooo     ",
"     oooOOOOoooooooooOOOOooo    ",
"    ooooO  OOoooooooOO  Ooooo   ",
"    ooooO   OoooooooO   Ooooo   ",
"    ooooO O OOoooooOO O Ooooo   ",
"    ooooO OO OoooooO OO Ooooo   ",
"    ooooO OO  OoooO  OO Ooooo   ",
"    ooooO OOO OOoOO OOO Ooooo   ",
"    ooooO OoO  OoO  OoO Ooooo   ",
"    ooooO OoOO OOO OOoO Ooooo   ",
"    ooooO OooO  O  OooO Ooooo   ",
"    ooooO OooOO   OOooO Ooooo   ",
"     oooO OoooOO OOoooO Oooo    ",
"      ooOOOooooOOOooooOOOoo     ",
"       ooooooooooooooooooo      ",
"        ooooooooooooooooo       ",
"         ooooooooooooooo        ",
"                                ",
"                                ",
"                                "
};
