/* XPM */
static char *_1dc81e541b8442b9f398951840e3c16n6eGt8sKSJuXr7ky[] = {
/* columns rows colors chars-per-pixel */
"32 32 6 1 ",
"  c None",
". c #081B19",
"X c #2F6F17",
"o c #154648",
"O c #F6221B",
"+ c white",
/* pixels */
"                                ",
"                                ",
"                                ",
"                                ",
"              .....             ",
"            ..XXXXX..           ",
"           .XXXXXXXXX.          ",
"         ..XXXXXXXXXXX..        ",
"       ...XXXXXXXXXXXXX...      ",
"      ...oXXooXXXXXooXXo...     ",
"     ...OoXoOOoXXXoOOoXoO...    ",
"    ...OOOoOOOOoXoOOOOoOOO...   ",
"   ...OOOOOOOOOOoOOOOOOOOOO...  ",
"  ...OOO++++OOOOOOOOO++++OOO... ",
"  ..OOOO+..++OOOOOOO++..+OOOO.. ",
"  ..OOOO+...+OOOOOOO+...+OOOO.. ",
"  ..OOOO+.+.++OOOOO++.+.+OOOO.. ",
"  ..OOOO+.++.+OOOOO+.++.+OOOO.. ",
"  ..OOOO+.++..+OOO+..++.+OOOO.. ",
"  ..OOOO+.+++.++O++.+++.+OOOO.. ",
"  ..OOOO+.+O+..+O+..+O+.+OOOO.. ",
"  ..OOOO+.+O++.+++.++O+.+OOOO.. ",
"  ..OOOO+.+OO+..+..+OO+.+OOOO.. ",
"  ..OOOO+.+OO++...++OO+.+OOOO.. ",
"   ..OOO+.+OOO++.++OOO+.+OOO... ",
"   ...OO+++OOOO+++OOOO+++OO...  ",
"    ...OOOOOOOOOOOOOOOOOOO...   ",
"     ...OOOOOOOOOOOOOOOOO...    ",
"      ...OOOOOOOOOOOOOOO...     ",
"       ...................      ",
"        .................       ",
"                                "
};
