/* XPM */
static char *a7b314c50a7a4fca823c6593c81a593bujZkEHVIzYB7IgJN[] = {
/* columns rows colors chars-per-pixel */
"32 32 3 1 ",
"  c None",
". c #FFFF1D",
"X c white",
/* pixels */
"             XXXXX              ",
"            XX....XX            ",
"           XX......XX           ",
"          XX........XX          ",
"         XX..........XX         ",
"        XX............XX        ",
"       XX..............XX       ",
"      XX................XXX     ",
"   XXX....................XXX   ",
" XXX........................XXX ",
"XX............................XX",
"X..............................X",
"X..............................X",
"X..............................X",
"X..............................X",
"XX............................XX",
" XX..........................XX ",
"  XX........................XX  ",
"   XX......................XX   ",
"   XX......................XX   ",
"   X........................X   ",
"  XX........................XX  ",
"  X..........................X  ",
" X...........................X  ",
" X............XXXX...........X  ",
" X...........XX  XX..........X  ",
" X..........XX    XX.........X  ",
"  X.......XXX      XX.......X   ",
"   XXXXXXXX         XXXXXXXX    ",
"                                ",
"                                ",
"                                "
};
